<svg width="32" height="32" viewBox="0 0 32 32" fill="none" xmlns="http://www.w3.org/2000/svg">
<g clip-path="url(#clip0_528_13)">
<path d="M5.11361 19.6468C7.48757 19.6468 9.41204 17.6365 9.41204 15.1567C9.41204 12.6769 7.48757 10.6667 5.11361 10.6667C2.73966 10.6667 0.815186 12.6769 0.815186 15.1567C0.815186 17.6365 2.73966 19.6468 5.11361 19.6468Z" fill="white"/>
<path d="M23.0167 9.80404C25.3906 9.80404 27.3151 7.79377 27.3151 5.31398C27.3151 2.83418 25.3906 0.823914 23.0167 0.823914C20.6427 0.823914 18.7183 2.83418 18.7183 5.31398C18.7183 7.79377 20.6427 9.80404 23.0167 9.80404Z" fill="white"/>
<path d="M3.8855 21.4052C4.94275 24.1918 6.7878 26.5757 9.17481 28.2393C11.5618 29.903 14.3775 30.7673 17.2466 30.7171C16.4083 29.6154 15.9446 28.2537 15.9285 26.8464C15.5438 26.7911 15.175 26.7247 14.8221 26.6473C13.3004 26.3103 11.8706 25.6206 10.6383 24.6291C9.40593 23.6375 8.40255 22.3695 7.70221 20.9186C6.51381 21.5077 5.17464 21.6784 3.8855 21.4052Z" fill="white"/>
<path d="M22.0479 31.2259C24.4219 31.2259 26.3464 29.2156 26.3464 26.7358C26.3464 24.256 24.4219 22.2457 22.0479 22.2457C19.674 22.2457 17.7495 24.256 17.7495 26.7358C17.7495 29.2156 19.674 31.2259 22.0479 31.2259Z" fill="white"/>
<path d="M25.8859 21.737C26.9355 22.6152 27.6795 23.8296 28.0033 25.193C29.8983 22.7415 30.9908 19.7198 31.1203 16.5717C31.2499 13.4237 30.4098 10.3152 28.7232 7.70279C28.2336 8.97856 27.3604 10.0537 26.2352 10.7662C27.1103 12.464 27.539 14.3737 27.4776 16.3008C27.4162 18.228 26.867 20.1037 25.8859 21.737Z" fill="white"/>
<path d="M5.1242 8.76448C5.55117 8.76364 5.97703 8.80998 6.39467 8.90272C7.10238 9.06274 7.77781 9.35095 8.39037 9.75428C9.33653 8.31491 10.5996 7.13378 12.0734 6.31012C13.5473 5.48646 15.1888 5.04435 16.8602 5.02091C16.8725 4.66805 16.9114 4.31675 16.9766 3.97028C17.1821 2.98042 17.6063 2.05444 18.2153 1.26629C15.5063 1.03788 12.7912 1.62409 10.3908 2.95569C7.99038 4.2873 6.00494 6.30867 4.66895 8.78106C4.82246 8.77001 4.97068 8.76448 5.1242 8.76448Z" fill="white"/>
</g>
<defs>
<clipPath id="clip0_528_13">
<rect width="32" height="32" fill="white"/>
</clipPath>
</defs>
</svg>
