<svg width="140" height="140" viewBox="0 0 140 140" fill="none" xmlns="http://www.w3.org/2000/svg">
<path fill-rule="evenodd" clip-rule="evenodd" d="M70.0002 108.182C91.0874 108.182 108.182 91.0874 108.182 70.0002C108.182 48.9129 91.0874 31.8184 70.0002 31.8184C48.9129 31.8184 31.8184 48.9129 31.8184 70.0002C31.8184 91.0874 48.9129 108.182 70.0002 108.182ZM70.0002 95.4547C84.0581 95.4547 95.4547 84.0581 95.4547 70.0002C95.4547 55.942 84.0581 44.5456 70.0002 44.5456C55.942 44.5456 44.5456 55.942 44.5456 70.0002C44.5456 84.0581 55.942 95.4547 70.0002 95.4547Z" fill="white"/>
<path d="M108.182 25.4546C104.667 25.4546 101.818 28.3037 101.818 31.8182C101.818 35.3327 104.667 38.1819 108.182 38.1819C111.697 38.1819 114.546 35.3327 114.546 31.8182C114.546 28.3037 111.697 25.4546 108.182 25.4546Z" fill="white"/>
<path fill-rule="evenodd" clip-rule="evenodd" d="M4.16156 20.8477C0 29.0152 0 39.7071 0 61.0909V78.9091C0 100.293 0 110.985 4.16156 119.152C7.82218 126.337 13.6632 132.178 20.8477 135.838C29.0152 140 39.7071 140 61.0909 140H78.9091C100.293 140 110.985 140 119.152 135.838C126.337 132.178 132.178 126.337 135.838 119.152C140 110.985 140 100.293 140 78.9091V61.0909C140 39.7071 140 29.0152 135.838 20.8477C132.178 13.6632 126.337 7.82218 119.152 4.16156C110.985 0 100.293 0 78.9091 0H61.0909C39.7071 0 29.0152 0 20.8477 4.16156C13.6632 7.82218 7.82218 13.6632 4.16156 20.8477ZM78.9091 12.7273H61.0909C50.189 12.7273 42.778 12.7372 37.0496 13.2052C31.4697 13.6611 28.6163 14.4874 26.6257 15.5016C21.8361 17.9421 17.9421 21.8361 15.5016 26.6257C14.4874 28.6163 13.6611 31.4697 13.2052 37.0496C12.7372 42.778 12.7273 50.189 12.7273 61.0909V78.9091C12.7273 89.8113 12.7372 97.2217 13.2052 102.95C13.6611 108.531 14.4874 111.384 15.5016 113.375C17.9421 118.164 21.8361 122.058 26.6257 124.498C28.6163 125.513 31.4697 126.339 37.0496 126.795C42.778 127.263 50.189 127.273 61.0909 127.273H78.9091C89.8113 127.273 97.2217 127.263 102.95 126.795C108.531 126.339 111.384 125.513 113.375 124.498C118.164 122.058 122.058 118.164 124.498 113.375C125.513 111.384 126.339 108.531 126.795 102.95C127.263 97.2217 127.273 89.8113 127.273 78.9091V61.0909C127.273 50.189 127.263 42.778 126.795 37.0496C126.339 31.4697 125.513 28.6163 124.498 26.6257C122.058 21.8361 118.164 17.9421 113.375 15.5016C111.384 14.4874 108.531 13.6611 102.95 13.2052C97.2217 12.7372 89.8113 12.7273 78.9091 12.7273Z" fill="white"/>
</svg>
