<svg width="122" height="140" viewBox="0 0 122 140" fill="none" xmlns="http://www.w3.org/2000/svg">
<path d="M64.0755 0.116722C71.7398 4.44443e-07 79.3479 0.060695 86.9513 0C87.2041 9.48242 91.062 18.0171 97.2 24.3387L97.1906 24.3294C103.797 30.2635 112.393 34.1106 121.869 34.7642L122 34.7736V58.2859C113.048 58.0618 104.63 56.0028 97.0408 52.4638L97.4247 52.6226C93.7541 50.8624 90.65 49.0556 87.7004 47.0386L87.9438 47.1974C87.8877 64.234 88 81.2706 87.8268 98.2465C87.3446 106.898 84.4605 114.788 79.8348 121.376L79.9284 121.231C72.1939 132.278 59.6652 139.528 45.4181 139.958H45.3526C44.7767 139.986 44.0979 140 43.4143 140C35.3146 140 27.744 137.75 21.2923 133.842L21.4796 133.949C9.73738 126.904 1.63769 114.849 0.139482 100.828L0.120755 100.637C0.00370714 97.7189 -0.0524761 94.8009 0.0645715 91.9436C2.3587 69.6312 21.105 52.3704 43.8918 52.3704C46.4528 52.3704 48.9623 52.5899 51.4016 53.0054L51.1394 52.9681C51.2565 61.6007 50.9053 70.2381 50.9053 78.8708C48.9249 78.1565 46.6401 77.7409 44.257 77.7409C35.5112 77.7409 28.0717 83.3155 25.3187 91.0985L25.2766 91.2386C24.6539 93.2322 24.2934 95.5246 24.2934 97.8964C24.2934 98.8581 24.3543 99.8106 24.4666 100.744L24.4573 100.632C26.0117 110.185 34.2237 117.393 44.1259 117.393C44.4115 117.393 44.6925 117.389 44.9734 117.375H44.9312C51.7809 117.169 57.7269 113.495 61.0885 108.065L61.1353 107.981C62.3854 106.244 63.2421 104.143 63.5277 101.86L63.5324 101.795C64.1177 91.3506 63.8836 80.9671 63.9398 70.5229C63.9959 47.0106 63.8836 23.5543 64.0568 0.102715L64.0755 0.116722Z" fill="white"/>
</svg>
