<svg width="200" height="140" viewBox="0 0 200 140" fill="none" xmlns="http://www.w3.org/2000/svg">
<path fill-rule="evenodd" clip-rule="evenodd" d="M79.8844 95.8612V39.743C99.8064 49.1173 115.236 58.1731 133.485 67.9364C118.433 76.2835 99.8064 85.6492 79.8844 95.8612ZM190.91 11.8328C187.474 7.30524 181.616 3.78089 175.381 2.61409C157.053 -0.866411 42.7099 -0.876311 24.3915 2.61409C19.3911 3.55149 14.9384 5.81732 11.1133 9.33772C-5.00362 24.2967 0.0466618 104.517 3.93147 117.512C5.56507 123.136 7.6769 127.193 10.3365 129.855C13.7631 133.376 18.4547 135.8 23.8436 136.887C38.9345 140.008 116.68 141.753 175.062 137.355C180.441 136.418 185.202 133.916 188.958 130.246C203.859 115.347 202.843 30.6213 190.91 11.8328Z" fill="white"/>
</svg>
